<svg id="Camada_1" data-name="Camada 1" xmlns="http://www.w3.org/2000/svg" viewBox="0 0 800 283"><defs><style>.cls-1{fill:#ff6c0e;}</style></defs><rect class="cls-1" x="390.5" y="20.68" width="14.13" height="125.29"/><path class="cls-1" d="M505.26,104.25a17.53,17.53,0,0,0,.09-1.78A43.5,43.5,0,1,0,461.85,146c22.49,0,37.71-12.62,43.42-30l-14.1,0c-3.8,7.71-12.71,15.5-28.17,15.5-18.27,0-30.58-14.77-30.58-27.13ZM461.62,73.4h-1.07c13.38,0,25.82,7.2,29.95,19.17H432.42C436.55,80.6,448.24,73.4,461.62,73.4Z"/><path class="cls-1" d="M717.81,145.79A43.17,43.17,0,0,0,748,133.5v12.57h14.11v-87H748V71.5a43.29,43.29,0,1,0-30.22,74.29Zm-.46-72.39c18.12,0,30.66,12.22,30.66,29.15s-13.72,29-30.66,29-28.7-12-28.7-29S700.42,73.4,717.35,73.4Z"/><path class="cls-1" d="M592.71,71.5a43.29,43.29,0,1,0,0,62v8.32c-.05,17.14-13.94,28.12-31.09,28.12-13.65,0-27.42-8.65-29.63-23.64H517.76c2.25,22.14,21.52,37.78,44.27,37.78,24.25,0,44.79-16.64,44.79-42.26V59.07H592.71Zm-30.68,60c-13.55,0-28.48-12-28.48-29S545.1,73.4,562,73.4s30.66,12.22,30.66,29.15S579,131.52,562,131.52Z"/><path class="cls-1" d="M640.91,72V59.07H626.78v87h14.13v-42.5A33.49,33.49,0,0,1,669,72.47V58.34A47.71,47.71,0,0,0,640.91,72Z"/><rect class="cls-1" x="356.56" y="73.44" width="14.13" height="72.6"/><path class="cls-1" d="M363.6,41.41a8.86,8.86,0,0,1,8.84,8.87,8.43,8.43,0,0,1-2.58,6.18,8.75,8.75,0,0,1-12.47,0,8.43,8.43,0,0,1-2.58-6.18,8.86,8.86,0,0,1,8.79-8.87Z"/><path class="cls-1" d="M783,59.43v-.11a2.26,2.26,0,0,0,1.82-2.09,2.2,2.2,0,0,0-.9-1.87,4.64,4.64,0,0,0-3-.71,24.83,24.83,0,0,0-3.38.27v8.8h2V60.23h1c1.13,0,1.67.43,1.83,1.34a6.68,6.68,0,0,0,.69,2.15h2.15a7.9,7.9,0,0,1-.65-2.15c-.26-1.17-.69-1.87-1.55-2.14Zm-2.29-.89h-1V56a4.46,4.46,0,0,1,1.12-.11c1.29,0,1.88.53,1.88,1.34S781.87,58.54,780.74,58.54Z"/><path class="cls-1" d="M781.05,50.37a8.82,8.82,0,1,0,9,8.79,8.87,8.87,0,0,0-9-8.79Zm0,15.81h0a7,7,0,1,1,6.7-7A6.72,6.72,0,0,1,781.05,66.18Z"/><path class="cls-1" d="M30.59,55.1a126.34,126.34,0,0,0,246.19-.31l20.59,7.5A148.12,148.12,0,0,1,10,62.6Z"/><path class="cls-1" d="M232,38.51a79.3,79.3,0,0,1-156.72.31L94,32a72.53,72.53,0,0,0,59.61,31.16,72.52,72.52,0,0,0,59.8-31.43Z"/><path class="cls-1" d="M431.86,221.84a11,11,0,0,0-4.06-3.32,12.32,12.32,0,0,0-5.27-1.12,12.73,12.73,0,0,0-6.41,1.6,17.67,17.67,0,0,0-4.09,3.27l-.34-2.72a2,2,0,0,0-2.05-1.58h-3.92v44.35h6.75V248.79a11.64,11.64,0,0,0,3,2,12.64,12.64,0,0,0,5.35,1,13.49,13.49,0,0,0,6.09-1.35,13.34,13.34,0,0,0,4.57-3.69,16.76,16.76,0,0,0,2.84-5.5,23,23,0,0,0,1-6.81,27.45,27.45,0,0,0-.88-7.26A15.76,15.76,0,0,0,431.86,221.84Zm-3.52,12.63c0,3.84-.78,6.82-2.31,8.87a7.6,7.6,0,0,1-6.5,3,9.32,9.32,0,0,1-3.94-.81,8.41,8.41,0,0,1-3.12-2.66V227.6a13.34,13.34,0,0,1,3.59-3.34,8.69,8.69,0,0,1,4.59-1.19,8.2,8.2,0,0,1,3.26.62,5.82,5.82,0,0,1,2.37,1.95,10.19,10.19,0,0,1,1.52,3.53A22.64,22.64,0,0,1,428.34,234.47Z"/><path class="cls-1" d="M467.85,234.53a4,4,0,0,0,.37-2.07,18.11,18.11,0,0,0-1-6.33,13.31,13.31,0,0,0-2.91-4.72,12.63,12.63,0,0,0-4.43-2.94,15,15,0,0,0-5.56-1,16.12,16.12,0,0,0-6.53,1.28,14.24,14.24,0,0,0-4.94,3.51,15.57,15.57,0,0,0-3.09,5.27,19.44,19.44,0,0,0-1.07,6.5,22.63,22.63,0,0,0,1.18,7.58,15.93,15.93,0,0,0,3.32,5.6,14.11,14.11,0,0,0,5.08,3.45,17,17,0,0,0,6.37,1.17,21.36,21.36,0,0,0,3.63-.31,20.91,20.91,0,0,0,3.56-.93A16.92,16.92,0,0,0,465,249a11.41,11.41,0,0,0,2.64-2.33l.28-.33-1.85-2.4c-.61-.87-1.71-1.11-3.11-.18-.48.31-1.09.66-1.81,1a17.23,17.23,0,0,1-2.59,1,11.72,11.72,0,0,1-3.52.47,10.49,10.49,0,0,1-3.95-.71,8,8,0,0,1-3-2.12,10.66,10.66,0,0,1-2-3.6,16.79,16.79,0,0,1-.78-4.62h20.95A1.7,1.7,0,0,0,467.85,234.53ZM462,230.61H445.62a10.34,10.34,0,0,1,2.69-5.67,8.22,8.22,0,0,1,6.1-2.22,8.09,8.09,0,0,1,3.25.61A6.72,6.72,0,0,1,460,225a7.63,7.63,0,0,1,1.49,2.65A10.74,10.74,0,0,1,462,230.61Z"/><path class="cls-1" d="M499.48,221a9.56,9.56,0,0,0-3.58-2.63,12.12,12.12,0,0,0-4.89-.93,12.81,12.81,0,0,0-6.27,1.51,18.45,18.45,0,0,0-4.06,3.05l-.32-2.47a2,2,0,0,0-2.05-1.58h-3.92v33.4h6.76V227.24a15,15,0,0,1,3.76-3,9,9,0,0,1,4.44-1.14,5.72,5.72,0,0,1,4.71,1.83,8.22,8.22,0,0,1,1.56,5.35v21.12h6.75V230.25a17.6,17.6,0,0,0-.73-5.17A11.52,11.52,0,0,0,499.48,221Z"/><path class="cls-1" d="M528.47,234.85a11.73,11.73,0,0,0-2.81-1.67c-1-.43-2.06-.83-3.12-1.18s-2.09-.69-3.09-1a15.31,15.31,0,0,1-2.6-1,5.84,5.84,0,0,1-1.74-1.31,2.54,2.54,0,0,1-.58-1.72,3.49,3.49,0,0,1,.37-1.6A3.86,3.86,0,0,1,516,224a5.7,5.7,0,0,1,1.79-.92,7.91,7.91,0,0,1,2.42-.34,9.8,9.8,0,0,1,2.72.34,14.43,14.43,0,0,1,2,.77c.57.28,1.06.54,1.45.76,1.35.78,2.45.46,3-.54l1.5-2.43-.32-.3a14,14,0,0,0-4.56-2.87,15.85,15.85,0,0,0-5.92-1,15,15,0,0,0-5.07.8,11.69,11.69,0,0,0-3.78,2.16,9.37,9.37,0,0,0-2.37,3.18,9.21,9.21,0,0,0-.81,3.78,8.4,8.4,0,0,0,.78,3.77,8,8,0,0,0,2,2.61,11.65,11.65,0,0,0,2.83,1.73c1,.44,2.08.83,3.14,1.18s2.09.67,3.1,1a14.77,14.77,0,0,1,2.61,1.05,5.5,5.5,0,0,1,1.73,1.37,2.84,2.84,0,0,1,.6,1.87,4.72,4.72,0,0,1-.36,1.84,4.13,4.13,0,0,1-1.09,1.5,5.62,5.62,0,0,1-1.89,1.06,8.58,8.58,0,0,1-2.73.4,9.45,9.45,0,0,1-3.06-.42,11.34,11.34,0,0,1-2.11-.94c-.59-.36-1.1-.68-1.51-1a2.48,2.48,0,0,0-2.73-.24,2.52,2.52,0,0,0-.78.81L507,247.52l.34.3a16.22,16.22,0,0,0,4.82,2.93,17,17,0,0,0,6.32,1.14,16.31,16.31,0,0,0,5.41-.83,12.24,12.24,0,0,0,4-2.29,9.64,9.64,0,0,0,2.5-3.48,11.12,11.12,0,0,0,.84-4.34,7.73,7.73,0,0,0-.78-3.59A7.89,7.89,0,0,0,528.47,234.85Z"/><path class="cls-1" d="M564.48,234.53a3.92,3.92,0,0,0,.37-2.07,18.35,18.35,0,0,0-1-6.33,13.47,13.47,0,0,0-2.92-4.72,12.63,12.63,0,0,0-4.43-2.94,15,15,0,0,0-5.56-1,16.12,16.12,0,0,0-6.53,1.28,14.43,14.43,0,0,0-4.94,3.51,15.57,15.57,0,0,0-3.09,5.27,19.44,19.44,0,0,0-1.07,6.5,22.63,22.63,0,0,0,1.18,7.58,15.8,15.8,0,0,0,3.33,5.6,14.07,14.07,0,0,0,5.07,3.45,17,17,0,0,0,6.37,1.17,21.56,21.56,0,0,0,3.64-.31,21,21,0,0,0,3.55-.93,16.92,16.92,0,0,0,3.25-1.6,11.67,11.67,0,0,0,2.65-2.33l.27-.33-1.84-2.4c-.62-.87-1.72-1.11-3.12-.18-.48.31-1.09.66-1.81,1a17.51,17.51,0,0,1-2.58,1,11.79,11.79,0,0,1-3.53.47,10.57,10.57,0,0,1-4-.71,8.06,8.06,0,0,1-3-2.12,10.66,10.66,0,0,1-2-3.6,16.79,16.79,0,0,1-.78-4.62h21A1.68,1.68,0,0,0,564.48,234.53Zm-5.81-3.92H542.25a10.41,10.41,0,0,1,2.69-5.67,8.24,8.24,0,0,1,6.1-2.22,8.09,8.09,0,0,1,3.25.61,6.54,6.54,0,0,1,2.38,1.71,7.63,7.63,0,0,1,1.49,2.65A11.14,11.14,0,0,1,558.67,230.61Z"/><rect class="cls-1" x="616.34" y="203.29" width="6.75" height="48.08"/><path class="cls-1" d="M646.68,214a3.51,3.51,0,0,0,1-.81l8.24-9.13h-6.75a3.39,3.39,0,0,0-1.84.42,3.74,3.74,0,0,0-1.14,1.24L641,214.26h4.34A3.14,3.14,0,0,0,646.68,214Z"/><path class="cls-1" d="M658.94,234.53a3.92,3.92,0,0,0,.37-2.07,18.11,18.11,0,0,0-1-6.33,13.6,13.6,0,0,0-2.91-4.72,12.67,12.67,0,0,0-4.44-2.94,15,15,0,0,0-5.55-1,16.13,16.13,0,0,0-6.54,1.28,14.43,14.43,0,0,0-4.94,3.51,15.57,15.57,0,0,0-3.09,5.27,19.44,19.44,0,0,0-1.07,6.5,22.38,22.38,0,0,0,1.19,7.58,15.64,15.64,0,0,0,3.32,5.6,14.07,14.07,0,0,0,5.07,3.45,17,17,0,0,0,6.38,1.17,21.44,21.44,0,0,0,3.63-.31,21,21,0,0,0,3.55-.93,16.92,16.92,0,0,0,3.25-1.6,11.46,11.46,0,0,0,2.65-2.33l.27-.33-1.84-2.4c-.62-.87-1.71-1.11-3.11-.18-.48.31-1.1.66-1.82,1a17.51,17.51,0,0,1-2.58,1,11.79,11.79,0,0,1-3.53.47,10.48,10.48,0,0,1-3.94-.71,8,8,0,0,1-3-2.12,10.66,10.66,0,0,1-2-3.6,17.18,17.18,0,0,1-.78-4.62h21A1.68,1.68,0,0,0,658.94,234.53Zm-5.81-3.92H636.71a10.41,10.41,0,0,1,2.69-5.67,8.24,8.24,0,0,1,6.1-2.22,8.09,8.09,0,0,1,3.25.61,6.54,6.54,0,0,1,2.38,1.71,7.63,7.63,0,0,1,1.49,2.65A11.14,11.14,0,0,1,653.13,230.61Z"/><path class="cls-1" d="M709.61,224.87a11,11,0,0,0-2.23-4,9.6,9.6,0,0,0-3.58-2.51,12.42,12.42,0,0,0-4.75-.86,13.87,13.87,0,0,0-3.27.4,11.16,11.16,0,0,0-3.07,1.28,10.83,10.83,0,0,0-2.6,2.21,10.19,10.19,0,0,0-1.3,1.93,10.3,10.3,0,0,0-2.63-3.86,8.18,8.18,0,0,0-5.67-2,10,10,0,0,0-5.44,1.49,16.9,16.9,0,0,0-3.34,2.8l-.28-2.2A2,2,0,0,0,669.4,218h-3.91v33.4h6.75V226.93a12.13,12.13,0,0,1,3-2.81,6.7,6.7,0,0,1,3.63-1.05,5,5,0,0,1,4.14,1.72c1,1.17,1.45,3,1.45,5.46v21.12h6.75V230.25a8.78,8.78,0,0,1,.52-3.17,6.29,6.29,0,0,1,1.4-2.22,6,6,0,0,1,2-1.34,6.77,6.77,0,0,1,2.47-.45,5.41,5.41,0,0,1,4.41,1.77,8.21,8.21,0,0,1,1.53,5.41v21.12h6.76V230.25A17.47,17.47,0,0,0,709.61,224.87Z"/><path class="cls-1" d="M602.53,219.61l-.22,1.41a12.82,12.82,0,0,0-3.3-2.44,12.17,12.17,0,0,0-5.56-1.18,13.22,13.22,0,0,0-10.68,5,16.8,16.8,0,0,0-2.85,5.52,23,23,0,0,0-1,6.82,27.14,27.14,0,0,0,.88,7.26,15.56,15.56,0,0,0,2.55,5.35,11,11,0,0,0,4,3.3,12.33,12.33,0,0,0,5.28,1.12,12.68,12.68,0,0,0,6.21-1.5,17.29,17.29,0,0,0,3.84-2.91v4h6.76V218h-3.92A2,2,0,0,0,602.53,219.61Zm-.78,6.74v15.28a13.57,13.57,0,0,1-3.58,3.33,8.74,8.74,0,0,1-4.59,1.19,8.3,8.3,0,0,1-3.3-.62,5.73,5.73,0,0,1-2.36-1.95,9.79,9.79,0,0,1-1.51-3.51,22.93,22.93,0,0,1-.53-5.28c0-3.84.78-6.83,2.32-8.87a7.6,7.6,0,0,1,6.53-3,9.21,9.21,0,0,1,3.92.83A8.44,8.44,0,0,1,601.75,226.35Z"/></svg>