<svg width="1194" height="924" viewBox="0 0 1194 924" fill="none" xmlns="http://www.w3.org/2000/svg">
<path d="M66.8868 7.42847H1127.28C1159.31 7.42847 1186.49 36.4606 1186.49 73.9184V743.032C1186.49 780.49 1159.31 809.522 1127.28 809.522H66.8868C34.8588 809.522 7.67902 780.489 7.67902 743.032V73.9184C7.67902 36.4607 34.8588 7.42847 66.8868 7.42847Z" stroke="black" stroke-width="14.3658"/>
<path d="M713.258 892.7V892.713C713.274 901.212 707.203 906.826 701.26 906.826H461.33C455.371 906.826 449.31 901.216 449.31 892.7V861.67C449.31 853.141 455.383 847.543 461.33 847.543H701.238C707.197 847.543 713.258 853.154 713.258 861.67V892.7Z" stroke="black" stroke-width="14.3658"/>
<path d="M134.461 203.621C124.151 203.621 116.312 199.659 110.945 191.735C105.577 183.811 102.893 172.351 102.893 157.355C102.893 147.301 104.086 138.866 106.471 132.049C108.857 125.148 112.393 119.95 117.079 116.457C121.851 112.964 127.645 111.217 134.461 111.217C144.856 111.217 152.694 115.136 157.977 122.975C163.345 130.729 166.029 142.146 166.029 157.227C166.029 167.281 164.836 175.759 162.45 182.66C160.065 189.562 156.529 194.802 151.842 198.381C147.156 201.874 141.362 203.621 134.461 203.621ZM134.461 194.546C141.618 194.546 146.901 191.522 150.309 185.472C153.802 179.337 155.549 169.922 155.549 157.227C155.549 144.447 153.802 135.117 150.309 129.238C146.901 123.273 141.618 120.291 134.461 120.291C127.389 120.291 122.106 123.273 118.613 129.238C115.12 135.202 113.373 144.532 113.373 157.227C113.373 169.922 115.12 179.337 118.613 185.472C122.106 191.522 127.389 194.546 134.461 194.546ZM192.563 202.47C191.029 202.47 189.836 202.087 188.984 201.32C188.132 200.468 187.706 199.318 187.706 197.869C187.706 196.421 188.132 195.356 188.984 194.674C189.836 193.907 191.029 193.524 192.563 193.524H209.177V121.058H214.673L196.141 133.327C195.033 133.924 193.968 134.179 192.946 134.094C192.009 134.009 191.199 133.668 190.518 133.072C189.921 132.39 189.495 131.623 189.24 130.771C188.984 129.834 189.027 128.897 189.367 127.96C189.708 126.937 190.432 126.085 191.54 125.403L209.177 113.773C210.285 113.092 211.35 112.538 212.372 112.112C213.395 111.686 214.417 111.473 215.44 111.473C216.633 111.473 217.612 111.856 218.379 112.623C219.231 113.305 219.657 114.412 219.657 115.946V193.524H234.994C236.528 193.524 237.721 193.907 238.573 194.674C239.425 195.356 239.851 196.421 239.851 197.869C239.851 199.403 239.425 200.553 238.573 201.32C237.721 202.087 236.528 202.47 234.994 202.47H192.563ZM287.728 203.621C277.418 203.621 269.579 199.659 264.212 191.735C258.844 183.811 256.16 172.351 256.16 157.355C256.16 147.301 257.353 138.866 259.738 132.049C262.124 125.148 265.66 119.95 270.346 116.457C275.118 112.964 280.912 111.217 287.728 111.217C298.123 111.217 305.962 115.136 311.244 122.975C316.612 130.729 319.296 142.146 319.296 157.227C319.296 167.281 318.103 175.759 315.717 182.66C313.332 189.562 309.796 194.802 305.109 198.381C300.423 201.874 294.629 203.621 287.728 203.621ZM287.728 194.546C294.885 194.546 300.168 191.522 303.576 185.472C307.069 179.337 308.816 169.922 308.816 157.227C308.816 144.447 307.069 135.117 303.576 129.238C300.168 123.273 294.885 120.291 287.728 120.291C280.656 120.291 275.373 123.273 271.88 129.238C268.387 135.202 266.64 144.532 266.64 157.227C266.64 169.922 268.387 179.337 271.88 185.472C275.373 191.522 280.656 194.546 287.728 194.546ZM345.83 202.47C344.296 202.47 343.103 202.087 342.251 201.32C341.399 200.468 340.973 199.318 340.973 197.869C340.973 196.421 341.399 195.356 342.251 194.674C343.103 193.907 344.296 193.524 345.83 193.524H362.444V121.058H367.94L349.408 133.327C348.301 133.924 347.235 134.179 346.213 134.094C345.276 134.009 344.466 133.668 343.785 133.072C343.188 132.39 342.762 131.623 342.507 130.771C342.251 129.834 342.294 128.897 342.634 127.96C342.975 126.937 343.7 126.085 344.807 125.403L362.444 113.773C363.552 113.092 364.617 112.538 365.639 112.112C366.662 111.686 367.684 111.473 368.707 111.473C369.9 111.473 370.88 111.856 371.646 112.623C372.498 113.305 372.924 114.412 372.924 115.946V193.524H388.261C389.795 193.524 390.988 193.907 391.84 194.674C392.692 195.356 393.118 196.421 393.118 197.869C393.118 199.403 392.692 200.553 391.84 201.32C390.988 202.087 389.795 202.47 388.261 202.47H345.83ZM440.995 203.621C430.685 203.621 422.847 199.659 417.479 191.735C412.111 183.811 409.427 172.351 409.427 157.355C409.427 147.301 410.62 138.866 413.005 132.049C415.391 125.148 418.927 119.95 423.613 116.457C428.385 112.964 434.179 111.217 440.995 111.217C451.39 111.217 459.229 115.136 464.511 122.975C469.879 130.729 472.563 142.146 472.563 157.227C472.563 167.281 471.37 175.759 468.984 182.66C466.599 189.562 463.063 194.802 458.377 198.381C453.69 201.874 447.896 203.621 440.995 203.621ZM440.995 194.546C448.152 194.546 453.435 191.522 456.843 185.472C460.336 179.337 462.083 169.922 462.083 157.227C462.083 144.447 460.336 135.117 456.843 129.238C453.435 123.273 448.152 120.291 440.995 120.291C433.923 120.291 428.64 123.273 425.147 129.238C421.654 135.202 419.907 144.532 419.907 157.227C419.907 169.922 421.654 179.337 425.147 185.472C428.64 191.522 433.923 194.546 440.995 194.546ZM499.097 202.47C497.563 202.47 496.37 202.087 495.518 201.32C494.666 200.468 494.24 199.318 494.24 197.869C494.24 196.421 494.666 195.356 495.518 194.674C496.37 193.907 497.563 193.524 499.097 193.524H515.711V121.058H521.207L502.675 133.327C501.568 133.924 500.502 134.179 499.48 134.094C498.543 134.009 497.733 133.668 497.052 133.072C496.455 132.39 496.029 131.623 495.774 130.771C495.518 129.834 495.561 128.897 495.901 127.96C496.242 126.937 496.967 126.085 498.074 125.403L515.711 113.773C516.819 113.092 517.884 112.538 518.907 112.112C519.929 111.686 520.951 111.473 521.974 111.473C523.167 111.473 524.147 111.856 524.913 112.623C525.765 113.305 526.191 114.412 526.191 115.946V193.524H541.528C543.062 193.524 544.255 193.907 545.107 194.674C545.959 195.356 546.385 196.421 546.385 197.869C546.385 199.403 545.959 200.553 545.107 201.32C544.255 202.087 543.062 202.47 541.528 202.47H499.097ZM115.929 326.47C114.395 326.47 113.203 326.087 112.35 325.32C111.498 324.468 111.072 323.318 111.072 321.869C111.072 320.421 111.498 319.356 112.35 318.674C113.203 317.907 114.395 317.524 115.929 317.524H132.544V245.058H138.039L119.508 257.327C118.4 257.924 117.335 258.179 116.312 258.094C115.375 258.009 114.566 257.668 113.884 257.072C113.288 256.39 112.862 255.623 112.606 254.771C112.35 253.834 112.393 252.897 112.734 251.96C113.075 250.937 113.799 250.085 114.907 249.403L132.544 237.773C133.651 237.092 134.716 236.538 135.739 236.112C136.761 235.686 137.784 235.473 138.806 235.473C139.999 235.473 140.979 235.856 141.746 236.623C142.598 237.305 143.024 238.412 143.024 239.946V317.524H158.361C159.894 317.524 161.087 317.907 161.939 318.674C162.791 319.356 163.217 320.421 163.217 321.869C163.217 323.403 162.791 324.553 161.939 325.32C161.087 326.087 159.894 326.47 158.361 326.47H115.929ZM211.094 327.621C200.785 327.621 192.946 323.659 187.578 315.735C182.21 307.811 179.526 296.351 179.526 281.355C179.526 271.301 180.719 262.866 183.105 256.049C185.491 249.148 189.027 243.95 193.713 240.457C198.484 236.964 204.278 235.217 211.094 235.217C221.489 235.217 229.328 239.136 234.611 246.975C239.978 254.729 242.662 266.146 242.662 281.227C242.662 291.281 241.47 299.759 239.084 306.66C236.698 313.562 233.162 318.802 228.476 322.381C223.79 325.874 217.996 327.621 211.094 327.621ZM211.094 318.546C218.252 318.546 223.534 315.522 226.942 309.472C230.436 303.337 232.182 293.922 232.182 281.227C232.182 268.447 230.436 259.117 226.942 253.238C223.534 247.273 218.252 244.291 211.094 244.291C204.022 244.291 198.74 247.273 195.246 253.238C191.753 259.202 190.006 268.532 190.006 281.227C190.006 293.922 191.753 303.337 195.246 309.472C198.74 315.522 204.022 318.546 211.094 318.546ZM269.196 326.47C267.662 326.47 266.47 326.087 265.618 325.32C264.765 324.468 264.339 323.318 264.339 321.869C264.339 320.421 264.765 319.356 265.618 318.674C266.47 317.907 267.662 317.524 269.196 317.524H285.811V245.058H291.306L272.775 257.327C271.667 257.924 270.602 258.179 269.579 258.094C268.642 258.009 267.833 257.668 267.151 257.072C266.555 256.39 266.129 255.623 265.873 254.771C265.618 253.834 265.66 252.897 266.001 251.96C266.342 250.937 267.066 250.085 268.174 249.403L285.811 237.773C286.918 237.092 287.984 236.538 289.006 236.112C290.028 235.686 291.051 235.473 292.073 235.473C293.266 235.473 294.246 235.856 295.013 236.623C295.865 237.305 296.291 238.412 296.291 239.946V317.524H311.628C313.161 317.524 314.354 317.907 315.206 318.674C316.058 319.356 316.484 320.421 316.484 321.869C316.484 323.403 316.058 324.553 315.206 325.32C314.354 326.087 313.161 326.47 311.628 326.47H269.196ZM134.461 451.621C124.151 451.621 116.312 447.659 110.945 439.735C105.577 431.811 102.893 420.351 102.893 405.355C102.893 395.301 104.086 386.866 106.471 380.049C108.857 373.148 112.393 367.95 117.079 364.457C121.851 360.964 127.645 359.217 134.461 359.217C144.856 359.217 152.694 363.136 157.977 370.975C163.345 378.729 166.029 390.146 166.029 405.227C166.029 415.281 164.836 423.759 162.45 430.66C160.065 437.562 156.529 442.802 151.842 446.381C147.156 449.874 141.362 451.621 134.461 451.621ZM134.461 442.546C141.618 442.546 146.901 439.522 150.309 433.472C153.802 427.337 155.549 417.922 155.549 405.227C155.549 392.447 153.802 383.117 150.309 377.238C146.901 371.273 141.618 368.291 134.461 368.291C127.389 368.291 122.106 371.273 118.613 377.238C115.12 383.202 113.373 392.532 113.373 405.227C113.373 417.922 115.12 427.337 118.613 433.472C122.106 439.522 127.389 442.546 134.461 442.546ZM211.094 451.621C200.785 451.621 192.946 447.659 187.578 439.735C182.21 431.811 179.526 420.351 179.526 405.355C179.526 395.301 180.719 386.866 183.105 380.049C185.491 373.148 189.027 367.95 193.713 364.457C198.484 360.964 204.278 359.217 211.094 359.217C221.489 359.217 229.328 363.136 234.611 370.975C239.978 378.729 242.662 390.146 242.662 405.227C242.662 415.281 241.47 423.759 239.084 430.66C236.698 437.562 233.162 442.802 228.476 446.381C223.79 449.874 217.996 451.621 211.094 451.621ZM211.094 442.546C218.252 442.546 223.534 439.522 226.942 433.472C230.436 427.337 232.182 417.922 232.182 405.227C232.182 392.447 230.436 383.117 226.942 377.238C223.534 371.273 218.252 368.291 211.094 368.291C204.022 368.291 198.74 371.273 195.246 377.238C191.753 383.202 190.006 392.532 190.006 405.227C190.006 417.922 191.753 427.337 195.246 433.472C198.74 439.522 204.022 442.546 211.094 442.546ZM269.196 450.47C267.662 450.47 266.47 450.087 265.618 449.32C264.765 448.468 264.339 447.318 264.339 445.869C264.339 444.421 264.765 443.356 265.618 442.674C266.47 441.907 267.662 441.524 269.196 441.524H285.811V369.058H291.306L272.775 381.327C271.667 381.924 270.602 382.179 269.579 382.094C268.642 382.009 267.833 381.668 267.151 381.072C266.555 380.39 266.129 379.623 265.873 378.771C265.618 377.834 265.66 376.897 266.001 375.96C266.342 374.937 267.066 374.085 268.174 373.403L285.811 361.773C286.918 361.092 287.984 360.538 289.006 360.112C290.028 359.686 291.051 359.473 292.073 359.473C293.266 359.473 294.246 359.856 295.013 360.623C295.865 361.305 296.291 362.412 296.291 363.946V441.524H311.628C313.161 441.524 314.354 441.907 315.206 442.674C316.058 443.356 316.484 444.421 316.484 445.869C316.484 447.403 316.058 448.553 315.206 449.32C314.354 450.087 313.161 450.47 311.628 450.47H269.196ZM364.361 451.621C354.052 451.621 346.213 447.659 340.845 439.735C335.477 431.811 332.793 420.351 332.793 405.355C332.793 395.301 333.986 386.866 336.372 380.049C338.758 373.148 342.294 367.95 346.98 364.457C351.751 360.964 357.545 359.217 364.361 359.217C374.756 359.217 382.595 363.136 387.878 370.975C393.246 378.729 395.929 390.146 395.929 405.227C395.929 415.281 394.737 423.759 392.351 430.66C389.965 437.562 386.429 442.802 381.743 446.381C377.057 449.874 371.263 451.621 364.361 451.621ZM364.361 442.546C371.519 442.546 376.801 439.522 380.209 433.472C383.703 427.337 385.449 417.922 385.449 405.227C385.449 392.447 383.703 383.117 380.209 377.238C376.801 371.273 371.519 368.291 364.361 368.291C357.29 368.291 352.007 371.273 348.514 377.238C345.02 383.202 343.273 392.532 343.273 405.227C343.273 417.922 345.02 427.337 348.514 433.472C352.007 439.522 357.29 442.546 364.361 442.546ZM422.463 450.47C420.929 450.47 419.737 450.087 418.885 449.32C418.033 448.468 417.607 447.318 417.607 445.869C417.607 444.421 418.033 443.356 418.885 442.674C419.737 441.907 420.929 441.524 422.463 441.524H439.078V369.058H444.574L426.042 381.327C424.934 381.924 423.869 382.179 422.847 382.094C421.909 382.009 421.1 381.668 420.418 381.072C419.822 380.39 419.396 379.623 419.14 378.771C418.885 377.834 418.927 376.897 419.268 375.96C419.609 374.937 420.333 374.085 421.441 373.403L439.078 361.773C440.186 361.092 441.251 360.538 442.273 360.112C443.295 359.686 444.318 359.473 445.34 359.473C446.533 359.473 447.513 359.856 448.28 360.623C449.132 361.305 449.558 362.412 449.558 363.946V441.524H464.895C466.428 441.524 467.621 441.907 468.473 442.674C469.325 443.356 469.751 444.421 469.751 445.869C469.751 447.403 469.325 448.553 468.473 449.32C467.621 450.087 466.428 450.47 464.895 450.47H422.463ZM499.097 450.47C497.563 450.47 496.37 450.087 495.518 449.32C494.666 448.468 494.24 447.318 494.24 445.869C494.24 444.421 494.666 443.356 495.518 442.674C496.37 441.907 497.563 441.524 499.097 441.524H515.711V369.058H521.207L502.675 381.327C501.568 381.924 500.502 382.179 499.48 382.094C498.543 382.009 497.733 381.668 497.052 381.072C496.455 380.39 496.029 379.623 495.774 378.771C495.518 377.834 495.561 376.897 495.901 375.96C496.242 374.937 496.967 374.085 498.074 373.403L515.711 361.773C516.819 361.092 517.884 360.538 518.907 360.112C519.929 359.686 520.951 359.473 521.974 359.473C523.167 359.473 524.147 359.856 524.913 360.623C525.765 361.305 526.191 362.412 526.191 363.946V441.524H541.528C543.062 441.524 544.255 441.907 545.107 442.674C545.959 443.356 546.385 444.421 546.385 445.869C546.385 447.403 545.959 448.553 545.107 449.32C544.255 450.087 543.062 450.47 541.528 450.47H499.097ZM115.929 574.47C114.395 574.47 113.203 574.087 112.35 573.32C111.498 572.468 111.072 571.318 111.072 569.869C111.072 568.421 111.498 567.356 112.35 566.674C113.203 565.907 114.395 565.524 115.929 565.524H132.544V493.058H138.039L119.508 505.327C118.4 505.924 117.335 506.179 116.312 506.094C115.375 506.009 114.566 505.668 113.884 505.072C113.288 504.39 112.862 503.623 112.606 502.771C112.35 501.834 112.393 500.897 112.734 499.96C113.075 498.937 113.799 498.085 114.907 497.403L132.544 485.773C133.651 485.092 134.716 484.538 135.739 484.112C136.761 483.686 137.784 483.473 138.806 483.473C139.999 483.473 140.979 483.856 141.746 484.623C142.598 485.305 143.024 486.412 143.024 487.946V565.524H158.361C159.894 565.524 161.087 565.907 161.939 566.674C162.791 567.356 163.217 568.421 163.217 569.869C163.217 571.403 162.791 572.553 161.939 573.32C161.087 574.087 159.894 574.47 158.361 574.47H115.929ZM192.563 574.47C191.029 574.47 189.836 574.087 188.984 573.32C188.132 572.468 187.706 571.318 187.706 569.869C187.706 568.421 188.132 567.356 188.984 566.674C189.836 565.907 191.029 565.524 192.563 565.524H209.177V493.058H214.673L196.141 505.327C195.033 505.924 193.968 506.179 192.946 506.094C192.009 506.009 191.199 505.668 190.518 505.072C189.921 504.39 189.495 503.623 189.24 502.771C188.984 501.834 189.027 500.897 189.367 499.96C189.708 498.937 190.432 498.085 191.54 497.403L209.177 485.773C210.285 485.092 211.35 484.538 212.372 484.112C213.395 483.686 214.417 483.473 215.44 483.473C216.633 483.473 217.612 483.856 218.379 484.623C219.231 485.305 219.657 486.412 219.657 487.946V565.524H234.994C236.528 565.524 237.721 565.907 238.573 566.674C239.425 567.356 239.851 568.421 239.851 569.869C239.851 571.403 239.425 572.553 238.573 573.32C237.721 574.087 236.528 574.47 234.994 574.47H192.563ZM287.728 575.621C277.418 575.621 269.579 571.659 264.212 563.735C258.844 555.811 256.16 544.351 256.16 529.355C256.16 519.301 257.353 510.866 259.738 504.049C262.124 497.148 265.66 491.95 270.346 488.457C275.118 484.964 280.912 483.217 287.728 483.217C298.123 483.217 305.962 487.136 311.244 494.975C316.612 502.729 319.296 514.146 319.296 529.227C319.296 539.281 318.103 547.759 315.717 554.66C313.332 561.562 309.796 566.802 305.109 570.381C300.423 573.874 294.629 575.621 287.728 575.621ZM287.728 566.546C294.885 566.546 300.168 563.522 303.576 557.472C307.069 551.337 308.816 541.922 308.816 529.227C308.816 516.447 307.069 507.117 303.576 501.238C300.168 495.273 294.885 492.291 287.728 492.291C280.656 492.291 275.373 495.273 271.88 501.238C268.387 507.202 266.64 516.532 266.64 529.227C266.64 541.922 268.387 551.337 271.88 557.472C275.373 563.522 280.656 566.546 287.728 566.546ZM345.83 574.47C344.296 574.47 343.103 574.087 342.251 573.32C341.399 572.468 340.973 571.318 340.973 569.869C340.973 568.421 341.399 567.356 342.251 566.674C343.103 565.907 344.296 565.524 345.83 565.524H362.444V493.058H367.94L349.408 505.327C348.301 505.924 347.235 506.179 346.213 506.094C345.276 506.009 344.466 505.668 343.785 505.072C343.188 504.39 342.762 503.623 342.507 502.771C342.251 501.834 342.294 500.897 342.634 499.96C342.975 498.937 343.7 498.085 344.807 497.403L362.444 485.773C363.552 485.092 364.617 484.538 365.639 484.112C366.662 483.686 367.684 483.473 368.707 483.473C369.9 483.473 370.88 483.856 371.646 484.623C372.498 485.305 372.924 486.412 372.924 487.946V565.524H388.261C389.795 565.524 390.988 565.907 391.84 566.674C392.692 567.356 393.118 568.421 393.118 569.869C393.118 571.403 392.692 572.553 391.84 573.32C390.988 574.087 389.795 574.47 388.261 574.47H345.83ZM440.995 575.621C430.685 575.621 422.847 571.659 417.479 563.735C412.111 555.811 409.427 544.351 409.427 529.355C409.427 519.301 410.62 510.866 413.005 504.049C415.391 497.148 418.927 491.95 423.613 488.457C428.385 484.964 434.179 483.217 440.995 483.217C451.39 483.217 459.229 487.136 464.511 494.975C469.879 502.729 472.563 514.146 472.563 529.227C472.563 539.281 471.37 547.759 468.984 554.66C466.599 561.562 463.063 566.802 458.377 570.381C453.69 573.874 447.896 575.621 440.995 575.621ZM440.995 566.546C448.152 566.546 453.435 563.522 456.843 557.472C460.336 551.337 462.083 541.922 462.083 529.227C462.083 516.447 460.336 507.117 456.843 501.238C453.435 495.273 448.152 492.291 440.995 492.291C433.923 492.291 428.64 495.273 425.147 501.238C421.654 507.202 419.907 516.532 419.907 529.227C419.907 541.922 421.654 551.337 425.147 557.472C428.64 563.522 433.923 566.546 440.995 566.546ZM517.628 575.621C507.319 575.621 499.48 571.659 494.112 563.735C488.744 555.811 486.06 544.351 486.06 529.355C486.06 519.301 487.253 510.866 489.639 504.049C492.025 497.148 495.561 491.95 500.247 488.457C505.018 484.964 510.812 483.217 517.628 483.217C528.023 483.217 535.862 487.136 541.145 494.975C546.513 502.729 549.196 514.146 549.196 529.227C549.196 539.281 548.004 547.759 545.618 554.66C543.232 561.562 539.696 566.802 535.01 570.381C530.324 573.874 524.53 575.621 517.628 575.621ZM517.628 566.546C524.786 566.546 530.068 563.522 533.476 557.472C536.97 551.337 538.716 541.922 538.716 529.227C538.716 516.447 536.97 507.117 533.476 501.238C530.068 495.273 524.786 492.291 517.628 492.291C510.557 492.291 505.274 495.273 501.781 501.238C498.287 507.202 496.541 516.532 496.541 529.227C496.541 541.922 498.287 551.337 501.781 557.472C505.274 563.522 510.557 566.546 517.628 566.546ZM115.929 698.47C114.395 698.47 113.203 698.087 112.35 697.32C111.498 696.468 111.072 695.318 111.072 693.869C111.072 692.421 111.498 691.356 112.35 690.674C113.203 689.907 114.395 689.524 115.929 689.524H132.544V617.058H138.039L119.508 629.327C118.4 629.924 117.335 630.179 116.312 630.094C115.375 630.009 114.566 629.668 113.884 629.072C113.288 628.39 112.862 627.623 112.606 626.771C112.35 625.834 112.393 624.897 112.734 623.96C113.075 622.937 113.799 622.085 114.907 621.403L132.544 609.773C133.651 609.092 134.716 608.538 135.739 608.112C136.761 607.686 137.784 607.473 138.806 607.473C139.999 607.473 140.979 607.856 141.746 608.623C142.598 609.305 143.024 610.412 143.024 611.946V689.524H158.361C159.894 689.524 161.087 689.907 161.939 690.674C162.791 691.356 163.217 692.421 163.217 693.869C163.217 695.403 162.791 696.553 161.939 697.32C161.087 698.087 159.894 698.47 158.361 698.47H115.929ZM211.094 699.621C200.785 699.621 192.946 695.659 187.578 687.735C182.21 679.811 179.526 668.351 179.526 653.355C179.526 643.301 180.719 634.866 183.105 628.049C185.491 621.148 189.027 615.95 193.713 612.457C198.484 608.964 204.278 607.217 211.094 607.217C221.489 607.217 229.328 611.136 234.611 618.975C239.978 626.729 242.662 638.146 242.662 653.227C242.662 663.281 241.47 671.759 239.084 678.66C236.698 685.562 233.162 690.802 228.476 694.381C223.79 697.874 217.996 699.621 211.094 699.621ZM211.094 690.546C218.252 690.546 223.534 687.522 226.942 681.472C230.436 675.337 232.182 665.922 232.182 653.227C232.182 640.447 230.436 631.117 226.942 625.238C223.534 619.273 218.252 616.291 211.094 616.291C204.022 616.291 198.74 619.273 195.246 625.238C191.753 631.202 190.006 640.532 190.006 653.227C190.006 665.922 191.753 675.337 195.246 681.472C198.74 687.522 204.022 690.546 211.094 690.546ZM287.728 699.621C277.418 699.621 269.579 695.659 264.212 687.735C258.844 679.811 256.16 668.351 256.16 653.355C256.16 643.301 257.353 634.866 259.738 628.049C262.124 621.148 265.66 615.95 270.346 612.457C275.118 608.964 280.912 607.217 287.728 607.217C298.123 607.217 305.962 611.136 311.244 618.975C316.612 626.729 319.296 638.146 319.296 653.227C319.296 663.281 318.103 671.759 315.717 678.66C313.332 685.562 309.796 690.802 305.109 694.381C300.423 697.874 294.629 699.621 287.728 699.621ZM287.728 690.546C294.885 690.546 300.168 687.522 303.576 681.472C307.069 675.337 308.816 665.922 308.816 653.227C308.816 640.447 307.069 631.117 303.576 625.238C300.168 619.273 294.885 616.291 287.728 616.291C280.656 616.291 275.373 619.273 271.88 625.238C268.387 631.202 266.64 640.532 266.64 653.227C266.64 665.922 268.387 675.337 271.88 681.472C275.373 687.522 280.656 690.546 287.728 690.546ZM364.361 699.621C354.052 699.621 346.213 695.659 340.845 687.735C335.477 679.811 332.793 668.351 332.793 653.355C332.793 643.301 333.986 634.866 336.372 628.049C338.758 621.148 342.294 615.95 346.98 612.457C351.751 608.964 357.545 607.217 364.361 607.217C374.756 607.217 382.595 611.136 387.878 618.975C393.246 626.729 395.929 638.146 395.929 653.227C395.929 663.281 394.737 671.759 392.351 678.66C389.965 685.562 386.429 690.802 381.743 694.381C377.057 697.874 371.263 699.621 364.361 699.621ZM364.361 690.546C371.519 690.546 376.801 687.522 380.209 681.472C383.703 675.337 385.449 665.922 385.449 653.227C385.449 640.447 383.703 631.117 380.209 625.238C376.801 619.273 371.519 616.291 364.361 616.291C357.29 616.291 352.007 619.273 348.514 625.238C345.02 631.202 343.273 640.532 343.273 653.227C343.273 665.922 345.02 675.337 348.514 681.472C352.007 687.522 357.29 690.546 364.361 690.546ZM440.995 699.621C430.685 699.621 422.847 695.659 417.479 687.735C412.111 679.811 409.427 668.351 409.427 653.355C409.427 643.301 410.62 634.866 413.005 628.049C415.391 621.148 418.927 615.95 423.613 612.457C428.385 608.964 434.179 607.217 440.995 607.217C451.39 607.217 459.229 611.136 464.511 618.975C469.879 626.729 472.563 638.146 472.563 653.227C472.563 663.281 471.37 671.759 468.984 678.66C466.599 685.562 463.063 690.802 458.377 694.381C453.69 697.874 447.896 699.621 440.995 699.621ZM440.995 690.546C448.152 690.546 453.435 687.522 456.843 681.472C460.336 675.337 462.083 665.922 462.083 653.227C462.083 640.447 460.336 631.117 456.843 625.238C453.435 619.273 448.152 616.291 440.995 616.291C433.923 616.291 428.64 619.273 425.147 625.238C421.654 631.202 419.907 640.532 419.907 653.227C419.907 665.922 421.654 675.337 425.147 681.472C428.64 687.522 433.923 690.546 440.995 690.546ZM499.097 698.47C497.563 698.47 496.37 698.087 495.518 697.32C494.666 696.468 494.24 695.318 494.24 693.869C494.24 692.421 494.666 691.356 495.518 690.674C496.37 689.907 497.563 689.524 499.097 689.524H515.711V617.058H521.207L502.675 629.327C501.568 629.924 500.502 630.179 499.48 630.094C498.543 630.009 497.733 629.668 497.052 629.072C496.455 628.39 496.029 627.623 495.774 626.771C495.518 625.834 495.561 624.897 495.901 623.96C496.242 622.937 496.967 622.085 498.074 621.403L515.711 609.773C516.819 609.092 517.884 608.538 518.907 608.112C519.929 607.686 520.951 607.473 521.974 607.473C523.167 607.473 524.147 607.856 524.913 608.623C525.765 609.305 526.191 610.412 526.191 611.946V689.524H541.528C543.062 689.524 544.255 689.907 545.107 690.674C545.959 691.356 546.385 692.421 546.385 693.869C546.385 695.403 545.959 696.553 545.107 697.32C544.255 698.087 543.062 698.47 541.528 698.47H499.097Z" fill="black"/>
<path fill-rule="evenodd" clip-rule="evenodd" d="M327.584 232.163C325.534 234.213 325.465 249.69 327.473 256.947C328.401 260.297 331.37 264.76 335.254 268.644C342.392 275.784 348.238 277.919 360.659 277.93L368.95 277.938L369.79 283.186C371.014 290.844 378.363 300.913 385.423 304.609C390.181 307.1 393.549 307.733 402.013 307.733C411.224 307.733 412.637 308.049 412.644 310.104C412.673 319.471 420.448 330.979 429.934 335.696C434.501 337.966 439.891 338.271 486.446 338.883C537.224 339.55 537.991 339.602 544.004 342.749C547.356 344.502 558.957 354.617 569.785 365.226C585.551 380.674 591.252 385.364 598.417 388.784C615.272 396.829 634.297 396.77 651.333 388.624C658.979 384.966 664.109 380.63 682.745 362.071L705.018 339.89L710.849 345.603C718.58 353.178 726.473 356.683 735.805 356.683H743.269L742.84 378.593C742.314 405.465 742.209 405.721 723.445 425.348C708.567 440.909 706.522 443.795 706.522 449.238C706.522 455.414 709.835 459.529 734.872 484.458L759.341 508.821L783.809 484.458C808.847 459.529 812.159 455.414 812.159 449.238C812.159 443.795 810.114 440.909 795.237 425.348C776.462 405.71 776.367 405.479 775.84 378.497L775.41 356.489L783.289 356.454C792.928 356.41 799.175 353.664 807.445 345.834L813.694 339.92L835.952 362.086C854.572 380.631 859.703 384.966 867.349 388.624C884.385 396.77 903.409 396.829 920.265 388.784C927.429 385.364 933.131 380.674 948.897 365.226C959.724 354.617 971.325 344.502 974.677 342.749C980.69 339.602 981.457 339.55 1032.24 338.883C1078.79 338.271 1084.18 337.966 1088.75 335.696C1098.23 330.979 1106.01 319.471 1106.04 310.104C1106.04 308.049 1107.46 307.733 1116.67 307.733C1125.13 307.733 1128.5 307.1 1133.26 304.609C1140.32 300.913 1147.67 290.844 1148.89 283.186L1149.73 277.938L1158.02 277.93C1162.58 277.926 1168.75 277.249 1171.73 276.424C1178.92 274.433 1189.22 264.134 1191.21 256.947C1193.22 249.69 1193.15 234.213 1191.1 232.163C1188.9 229.962 930.978 229.809 920.232 232.003C909.421 234.209 899.209 238.208 888.678 244.362C881.462 248.578 871.352 257.685 846.352 282.485L813.504 315.068L790.825 292.591C758.527 260.582 760.155 260.582 727.857 292.591L705.178 315.068L672.33 282.485C647.329 257.685 637.219 248.578 630.003 244.362C619.472 238.208 609.261 234.209 598.449 232.003C587.704 229.809 329.785 229.962 327.584 232.163ZM605.121 251.601C620.545 257.23 627.892 262.994 660.126 294.758C677.451 311.83 691.625 326.465 691.625 327.279C691.625 329.877 650.536 369.719 644.868 372.617C632.582 378.9 617.144 378.962 605.022 372.779C602.02 371.247 590.44 361.145 579.287 350.329C562.837 334.377 557.272 329.843 549.814 326.309L540.618 321.954L488.697 321.277L436.775 320.599L433.508 316.799C431.711 314.71 430.242 311.815 430.242 310.366C430.242 307.801 431.674 307.733 486.107 307.744C517.725 307.75 545.793 308.359 550.776 309.147C563.945 311.232 572.097 315.893 586.64 329.656L599.679 341.996L605.023 336.78C607.962 333.91 610.366 330.91 610.366 330.114C610.366 327.976 589.022 307.417 581.741 302.541C578.287 300.228 572.193 296.945 568.198 295.247C560.967 292.172 560.555 292.156 478.32 291.482C389.378 290.753 391.656 290.949 388.354 283.704C387.556 281.953 386.903 279.939 386.903 279.229C386.903 278.423 421.398 277.947 478.658 277.959C578.696 277.98 580.349 278.092 594.673 285.762C598.463 287.79 607.107 294.783 613.884 301.3C620.661 307.819 626.784 313.151 627.491 313.151C628.198 313.151 631.186 310.676 634.13 307.652L639.484 302.155L625.235 288.215C613.925 277.152 608.896 273.277 600.857 269.435C581.738 260.296 582.292 260.332 460.953 260.332C353.64 260.332 352.005 260.293 348.568 257.588C344.647 254.505 342.571 249.595 344.645 248.313C345.398 247.847 402.597 247.771 471.757 248.143C594.321 248.803 597.692 248.891 605.121 251.601ZM1175.12 250.424C1175.12 251.518 1173.34 254.196 1171.16 256.374L1167.2 260.332H1058.02C936.36 260.332 936.947 260.294 917.824 269.435C909.785 273.277 904.757 277.152 893.447 288.215L879.198 302.155L884.552 307.652C887.496 310.676 890.483 313.151 891.19 313.151C891.897 313.151 898.02 307.819 904.797 301.3C911.574 294.783 920.219 287.79 924.008 285.762C938.333 278.092 939.985 277.98 1040.02 277.959C1097.28 277.947 1131.78 278.423 1131.78 279.229C1131.78 279.939 1131.13 281.953 1130.33 283.704C1127.03 290.948 1129.29 290.75 1040.36 291.507C950.033 292.277 954.696 291.858 939.816 300.523C932.753 304.636 908.316 327.507 908.316 330.004C908.316 330.861 910.72 333.91 913.659 336.78L919.003 341.996L932.042 329.656C946.585 315.893 954.736 311.232 967.906 309.147C972.888 308.359 1000.96 307.75 1032.57 307.744C1087.01 307.733 1088.44 307.801 1088.44 310.366C1088.44 311.815 1086.97 314.71 1085.17 316.799L1081.91 320.599L1029.98 321.277L978.063 321.954L969.26 325.972C962.092 329.244 956.624 333.701 939.809 349.981C928.453 360.976 916.711 371.221 913.715 372.75C901.55 378.956 886.123 378.912 873.85 372.636C868.156 369.725 827.057 329.886 827.057 327.279C827.057 326.465 841.231 311.83 858.555 294.758C890.789 262.994 898.137 257.23 913.561 251.601C920.988 248.891 924.364 248.803 1046.46 248.143C1115.36 247.771 1172.49 247.684 1173.42 247.95C1174.36 248.215 1175.12 249.328 1175.12 250.424ZM780.567 306.657C791.239 317.238 799.97 326.565 799.97 327.383C799.97 329.885 791.234 337.507 787.016 338.684C780.793 340.42 775.467 338.191 768.191 330.806C764.497 327.054 760.514 323.985 759.341 323.985C758.168 323.985 754.185 327.054 750.49 330.806C743.215 338.191 737.888 340.42 731.665 338.684C727.448 337.507 718.711 329.885 718.711 327.383C718.711 325.242 757.164 287.419 759.341 287.419C760.343 287.419 769.894 296.075 780.567 306.657ZM706.559 370.223C693.227 372.432 687.115 379.235 685.796 393.328C685.316 398.456 684.079 400.957 679.421 406.194C666.861 420.317 662.098 438.311 666.436 455.246C667.66 460.025 669.963 466.118 671.553 468.786C673.143 471.454 690.799 490.103 710.788 510.227L747.133 546.817L721.271 572.526C690.705 602.91 687.565 607.766 687.565 624.644C687.565 641.521 690.705 646.379 721.265 676.757L747.122 702.46L720.816 728.898C690.391 759.474 687.597 763.753 687.575 779.811C687.552 796.132 689.763 800.242 709.552 820.675C732.975 844.859 732.716 844.237 733.594 878.579C734.332 907.458 734.935 910.211 741.964 916.773C746.115 920.65 754.104 923.948 759.341 923.948C767.956 923.948 779.371 916.698 782.8 909.051C783.664 907.125 784.634 893.987 785.048 878.579C785.975 844.234 785.723 844.842 809.13 820.675C828.919 800.242 831.129 796.132 831.106 779.811C831.084 763.753 828.29 759.474 797.866 728.898L771.559 702.46L797.416 676.757C827.976 646.379 831.117 641.521 831.117 624.644C831.117 607.766 827.976 602.91 797.411 572.526L771.549 546.817L807.893 510.227C827.883 490.103 845.539 471.454 847.129 468.786C848.719 466.118 851.021 460.025 852.246 455.246C856.583 438.311 851.82 420.317 839.26 406.194C834.603 400.957 833.365 398.456 832.886 393.328C831.466 378.161 825.572 372.357 809.094 369.907C799.903 368.54 798.22 368.626 795.181 370.617C790.141 373.919 789.114 377.921 790.607 388.454C792.822 404.096 798.364 410.272 811.635 411.879C821.726 413.102 824.655 414.737 829.519 421.855C834.908 429.744 836.953 436.785 836.263 445.083C835.208 457.814 832.02 461.965 794.583 499.36L759.341 534.563L724.099 499.36C686.661 461.965 683.473 457.814 682.418 445.083C681.729 436.78 683.774 429.743 689.176 421.836C693.761 415.125 699.032 412.016 705.821 412.016C720.179 412.016 727.711 402.377 728.54 382.941C728.837 375.959 728.504 374.905 725.068 371.948C721.024 368.468 718.546 368.236 706.559 370.223ZM776.771 431.477C791.156 445.897 793.287 448.584 792.076 450.777C791.303 452.177 783.621 460.322 775.005 468.876L759.341 484.427L743.677 468.876C735.061 460.322 727.379 452.177 726.606 450.777C725.395 448.584 727.525 445.897 741.911 431.477C751.102 422.263 758.945 414.725 759.341 414.725C759.736 414.725 767.579 422.263 776.771 431.477ZM774.238 573.857L788.41 588.077H759.341H730.272L744.443 573.857C752.237 566.036 758.941 559.637 759.341 559.637C759.74 559.637 766.444 566.036 774.238 573.857ZM804.97 604.668C807.267 607.089 810.145 611.049 811.366 613.471C813.454 617.616 813.443 617.875 811.179 617.917C809.327 617.951 736.005 617.924 709.534 617.879L705.099 617.872L707.316 613.471C708.536 611.049 711.414 607.089 713.711 604.668L717.888 600.266H759.341H800.794L804.97 604.668ZM811.179 631.372C813.443 631.413 813.454 631.671 811.366 635.817C810.145 638.239 807.267 642.199 804.97 644.62L800.794 649.022H759.341H717.888L713.711 644.62C711.414 642.199 708.555 638.275 707.358 635.898L705.183 631.578L710.254 631.158C714.021 630.847 791.343 631.009 811.179 631.372ZM773.892 675.761L759.341 690.312L744.79 675.761L730.239 661.21H759.341H788.442L773.892 675.761ZM774.238 729.604L788.41 743.824H759.341H730.272L744.443 729.604C752.237 721.782 758.941 715.383 759.341 715.383C759.74 715.383 766.444 721.782 774.238 729.604ZM804.319 759.737C807.954 763.604 813.5 772.186 813.508 773.957C813.511 774.517 789.136 774.973 759.341 774.973C729.546 774.973 705.171 774.517 705.173 773.957C705.182 772.186 710.728 763.604 714.363 759.737L717.863 756.013H759.341H800.818L804.319 759.737ZM812.556 789.854C812.169 791.336 809.432 795.297 806.472 798.657L801.094 804.768H759.341H717.587L712.209 798.657C709.25 795.297 706.513 791.336 706.125 789.854C705.432 787.201 706.195 787.162 759.341 787.162C812.487 787.162 813.249 787.201 812.556 789.854ZM782.29 823.39C775.398 831.14 770.48 841.298 768.889 851.079C768.241 855.055 767.648 868.049 767.572 879.954C767.441 900.192 767.247 901.756 764.59 903.972C761.082 906.899 758.135 906.973 754.225 904.233C751.333 902.207 751.215 901.294 751.207 880.871C751.195 848.055 748.284 836.76 736.392 823.39L730.67 816.957H759.341H788.012L782.29 823.39Z" fill="black"/>
</svg>
